<svg xmlns="http://www.w3.org/2000/svg" viewBox="0 0 64 64" role="img" aria-labelledby="title desc">
  <title id="title">Thimble logo</title>
  <desc id="desc">A thimble-shaped shield with stitched holes and a needle.</desc>
  <rect width="64" height="64" rx="14" fill="#eef6f3"/>
  <path d="M20 17c2.5-4 21.5-4 24 0l4 31c.5 3.7-3.2 7-7.1 7H23.1c-3.9 0-7.6-3.3-7.1-7l4-31Z" fill="#116466"/>
  <path d="M23 20c2.1-2.1 15.9-2.1 18 0l3.6 28.2c.2 1.6-1.4 2.8-3.7 2.8H23.1c-2.3 0-3.9-1.2-3.7-2.8L23 20Z" fill="#ffffff" opacity=".88"/>
  <path d="M24 24h16M24.5 30h15M25 36h14M26 42h12" stroke="#116466" stroke-width="2" stroke-linecap="round" opacity=".55"/>
  <path d="M33 11l18 18" stroke="#17202a" stroke-width="3" stroke-linecap="round"/>
  <path d="M49.5 27.5l4 4" stroke="#17202a" stroke-width="5" stroke-linecap="round"/>
  <circle cx="28" cy="27" r="1.8" fill="#116466"/>
  <circle cx="36" cy="27" r="1.8" fill="#116466"/>
  <circle cx="31" cy="34" r="1.8" fill="#116466"/>
  <circle cx="39" cy="34" r="1.8" fill="#116466"/>
  <circle cx="29" cy="41" r="1.8" fill="#116466"/>
  <circle cx="37" cy="41" r="1.8" fill="#116466"/>
</svg>
